<?xml version="1.0" encoding="UTF-8" standalone="no"?>
<!DOCTYPE svg PUBLIC "-//W3C//DTD SVG 1.1//EN" "http://www.w3.org/Graphics/SVG/1.1/DTD/svg11.dtd">
<!-- Created with Vectornator (http://vectornator.io/) -->
<svg height="100%" stroke-miterlimit="10" style="fill-rule:nonzero;clip-rule:evenodd;stroke-linecap:round;stroke-linejoin:round;" version="1.1" viewBox="0 0 500 500" width="100%" xml:space="preserve" xmlns="http://www.w3.org/2000/svg" xmlns:xlink="http://www.w3.org/1999/xlink">
<defs/>
<g id="レイヤー-2">
<path d="M142.844 57.2188C115.284 57.2188 97.2239 86.7082 114.844 124.094L115.719 123.75C115.719 123.75 109.932 394.149 115.719 399.125C103.255 411.792 98.1575 427.484 100.25 434.875C105.212 452.402 117.5 449.812 117.5 449.812L359.219 448.906C359.219 448.906 382.983 451.289 380.562 434.531C378.68 421.498 370.339 399.14 359.656 398.688C359.656 369.734 359.906 365.437 359.906 365.438L401.062 366.562C401.062 366.562 433.11 353.912 434 318.625C434 165.261 432.656 174.75 432.656 174.75C432.656 174.75 431.314 144.435 396.594 133.125C357.422 133.125 362.781 133.594 362.781 133.594C362.781 133.594 368.128 122.28 357 121.375C370.799 107.351 368.123 94.6865 362.781 84.2812C357.44 73.876 320.919 45.3715 294.656 91.9688C278.631 75.6823 244.362 76.118 232.344 101C212.758 81.0944 207.88 73.8746 180.281 83.375C173.48 76.4632 161.653 57.2187 142.844 57.2188ZM377.625 164.438C406.149 164.512 409.656 187.688 409.656 187.688C409.656 187.687 408.875 206.333 408.875 311.188C396.647 346.916 363.031 330.594 363.031 330.594L363.781 165.938C368.94 164.87 373.55 164.427 377.625 164.438Z" fill="#ffffff" fill-rule="nonzero" opacity="1" stroke="#000000" stroke-linecap="butt" stroke-linejoin="round" stroke-width="12.7085"/>
<path d="M313.569 413.981C313.569 413.981 344.902 412.406 344.902 376.183C344.902 250.188 345.037 149.237 345.037 149.237C345.037 149.237 331.91 134.43 325.032 148.604C311.276 134.43 302.105 131.28 289.113 143.879C289.113 178.528 288.622 185.173 288.622 185.173C288.622 185.173 276.004 201.239 263.391 184.138C261.983 163.562 265.726 136.76 265.726 136.76C265.726 136.76 244.665 113.036 224.887 136.225C221.625 140.522 224.887 163.958 224.887 163.958C224.887 163.958 211.541 182.017 193.828 166.37C190.086 157.008 195.655 147.521 192.324 139.313C189.69 132.821 182.4 126.336 162.816 142.069C152.328 152.206 148.91 146.924 141.733 145.515C134.556 144.106 131.139 146.572 131.139 161.362C131.139 292.361 131.481 379.694 131.481 379.694C131.481 379.694 134.556 413.852 160.53 414.205C190.946 414.205 313.569 413.981 313.569 413.981Z" fill="#3aafb9" fill-rule="nonzero" opacity="1" stroke="none"/>
<path d="M287.984 185.223" fill="none" opacity="1" stroke="#007aff" stroke-linecap="butt" stroke-linejoin="round" stroke-width="10"/>
<path d="M152.893 203.365C152.893 195.897 158.584 189.842 165.603 189.842C172.623 189.842 178.313 195.897 178.313 203.365C178.313 210.834 172.623 216.888 165.603 216.888C158.584 216.888 152.893 210.834 152.893 203.365Z" fill="#ffffff" fill-rule="nonzero" opacity="1" stroke="none"/>
<path d="M311.455 358.832C311.455 355.436 314.043 352.682 317.235 352.682C320.427 352.682 323.015 355.436 323.015 358.832C323.015 362.228 320.427 364.982 317.235 364.982C314.043 364.982 311.455 362.228 311.455 358.832Z" fill="#ffffff" fill-rule="nonzero" opacity="1" stroke="none"/>
<path d="M292.051 382.497C292.051 378.167 295.35 374.657 299.419 374.657C303.489 374.657 306.788 378.167 306.788 382.497C306.788 386.827 303.489 390.337 299.419 390.337C295.35 390.337 292.051 386.827 292.051 382.497Z" fill="#ffffff" fill-rule="nonzero" opacity="1" stroke="none"/>
<path d="M304.248 186.462C304.248 180.549 308.753 175.756 314.31 175.756C319.867 175.756 324.372 180.549 324.372 186.462C324.372 192.374 319.867 197.167 314.31 197.167C308.753 197.167 304.248 192.374 304.248 186.462Z" fill="#ffffff" fill-rule="nonzero" opacity="1" stroke="none"/>
<path d="M288.43 127.503C288.086 126.788 279.223 148.553 277.736 151.641" fill="none" opacity="1" stroke="#ffffff" stroke-linecap="round" stroke-linejoin="round" stroke-width="10"/>
<path d="M261.032 129.919C264.433 129.919 266.847 137.415 267.39 139.952" fill="none" opacity="1" stroke="#ffffff" stroke-linecap="round" stroke-linejoin="round" stroke-width="1.96203"/>
<path d="M287.382 152.777C284.981 146.207 291.495 138.302 293.894 136.157" fill="none" opacity="1" stroke="#ffffff" stroke-linecap="round" stroke-linejoin="round" stroke-width="1.96203"/>
<path d="M338.668 141.022C345.017 143.448 346.488 153.741 346.473 157.03" fill="none" opacity="1" stroke="#ffffff" stroke-linecap="round" stroke-linejoin="round" stroke-width="1.96203"/>
</g>
</svg>
