<?xml version="1.0" encoding="UTF-8" standalone="no"?>
<!DOCTYPE svg PUBLIC "-//W3C//DTD SVG 1.1//EN" "http://www.w3.org/Graphics/SVG/1.1/DTD/svg11.dtd">
<!-- Created with Vectornator (http://vectornator.io/) -->
<svg height="100%" stroke-miterlimit="10" style="fill-rule:nonzero;clip-rule:evenodd;stroke-linecap:round;stroke-linejoin:round;" version="1.1" viewBox="0 0 500 500" width="100%" xml:space="preserve" xmlns="http://www.w3.org/2000/svg" xmlns:xlink="http://www.w3.org/1999/xlink">
<defs/>
<g id="レイヤー-1">
<g opacity="1">
<path d="M102.852 111.472L409.925 111.472C409.925 111.472 432.671 111.472 432.671 134.218C432.671 156.964 432.671 407.172 432.671 407.172L455.417 407.172C455.417 407.172 478.163 418.545 455.417 429.918C421.298 429.918 57.3601 429.918 57.3601 429.918C57.3601 429.918 34.6139 418.545 57.3601 407.172C80.1062 407.172 80.1062 407.172 80.1062 407.172L80.1062 134.218C80.1062 134.218 80.1062 111.472 102.852 111.472Z" fill="#7b7147" fill-rule="nonzero" opacity="1" stroke="#7b7147" stroke-linecap="butt" stroke-linejoin="round" stroke-width="4.54923"/>
<path d="M193.837 111.472L193.837 77.353C193.837 77.353 193.837 54.6069 216.583 54.6069C239.329 54.6069 296.194 54.6069 296.194 54.6069C296.194 54.6069 318.941 54.6069 318.941 77.353C318.941 100.099 318.941 111.472 318.941 111.472L193.837 111.472Z" fill="#7b7147" fill-rule="nonzero" opacity="1" stroke="#7b7147" stroke-linecap="butt" stroke-linejoin="round" stroke-width="4.54923"/>
<path d="M216.583 111.472L296.194 111.472L296.194 88.7261C296.194 88.7261 296.194 77.353 284.821 77.353C273.448 77.353 227.956 77.353 227.956 77.353C227.956 77.353 216.583 77.353 216.583 88.7261C216.583 100.099 216.583 111.472 216.583 111.472Z" fill="#7b7147" fill-rule="nonzero" opacity="1" stroke="#7b7147" stroke-linecap="butt" stroke-linejoin="round" stroke-width="4.54923"/>
<path d="M102.852 134.218L409.925 134.218L409.925 247.949L296.194 247.949C296.194 247.949 296.194 213.83 273.448 213.83C250.702 213.83 239.329 213.83 239.329 213.83C239.329 213.83 216.583 213.83 216.583 247.949C182.464 247.949 102.852 247.949 102.852 247.949L102.852 134.218Z" fill="#7b7147" fill-rule="nonzero" opacity="1" stroke="#7b7147" stroke-linecap="butt" stroke-linejoin="round" stroke-width="4.54923"/>
<path d="M102.852 270.695L102.852 407.172L409.925 407.172L409.925 270.695L296.194 270.695C296.194 270.695 296.194 304.814 273.448 304.814C250.702 304.814 239.329 304.814 239.329 304.814C239.329 304.814 216.583 304.814 216.583 270.695C171.091 270.695 102.852 270.695 102.852 270.695Z" fill="#7b7147" fill-rule="nonzero" opacity="1" stroke="#7b7147" stroke-linecap="butt" stroke-linejoin="round" stroke-width="4.54923"/>
<path d="M239.329 236.576L239.329 282.068L273.448 282.068L273.448 236.576L239.329 236.576Z" fill="#7b7147" fill-rule="nonzero" opacity="1" stroke="#7b7147" stroke-linecap="butt" stroke-linejoin="round" stroke-width="4.54923"/>
</g>
</g>
<g id="レイヤー-2">
<path d="M97.0529 115.339L404.126 115.339C404.126 115.339 426.872 115.339 426.872 138.085C426.872 160.831 426.872 411.038 426.872 411.038L449.618 411.038C449.618 411.038 472.364 422.411 449.618 433.784C415.499 433.784 51.5606 433.784 51.5606 433.784C51.5606 433.784 28.8145 422.411 51.5606 411.038C74.3067 411.038 74.3067 411.038 74.3067 411.038L74.3067 138.085C74.3067 138.085 74.3067 115.339 97.0529 115.339Z" fill="#3e3922" fill-rule="nonzero" opacity="1" stroke="#3e3922" stroke-linecap="butt" stroke-linejoin="round" stroke-width="4.54923"/>
<path d="M188.037 115.339L188.037 81.2193C188.037 81.2193 188.037 58.4732 210.783 58.4732C233.53 58.4732 290.395 58.4732 290.395 58.4732C290.395 58.4732 313.141 58.4732 313.141 81.2193C313.141 103.965 313.141 115.339 313.141 115.339L188.037 115.339Z" fill="#3e3922" fill-rule="nonzero" opacity="1" stroke="#3e3922" stroke-linecap="butt" stroke-linejoin="round" stroke-width="4.54923"/>
<path d="M210.783 115.339L290.395 115.339L290.395 92.5924C290.395 92.5924 290.395 81.2193 279.022 81.2193C267.649 81.2193 222.157 81.2193 222.157 81.2193C222.157 81.2193 210.783 81.2193 210.783 92.5924C210.783 103.965 210.783 115.339 210.783 115.339Z" fill="#ffffff" fill-rule="nonzero" opacity="1" stroke="#f5ad89" stroke-linecap="butt" stroke-linejoin="round" stroke-width="4.54923"/>
<path d="M97.0529 138.085L404.126 138.085L404.126 251.815L290.395 251.815C290.395 251.815 290.395 217.696 267.649 217.696C244.903 217.696 233.53 217.696 233.53 217.696C233.53 217.696 210.783 217.696 210.783 251.815C176.664 251.815 97.0529 251.815 97.0529 251.815L97.0529 138.085Z" fill="#f6f6f6" fill-rule="nonzero" opacity="1" stroke="#f5ad89" stroke-linecap="butt" stroke-linejoin="round" stroke-width="4.54923"/>
<path d="M97.0529 274.561L97.0529 411.038L404.126 411.038L404.126 274.561L290.395 274.561C290.395 274.561 290.395 308.681 267.649 308.681C244.903 308.681 233.53 308.681 233.53 308.681C233.53 308.681 210.783 308.681 210.783 274.561C165.291 274.561 97.0529 274.561 97.0529 274.561Z" fill="#f6f6f6" fill-rule="nonzero" opacity="1" stroke="#e4bc87" stroke-linecap="butt" stroke-linejoin="round" stroke-width="4.54923"/>
<path d="M233.53 240.442L233.53 285.934L267.649 285.934L267.649 240.442L233.53 240.442Z" fill="#f6f6f6" fill-rule="nonzero" opacity="1" stroke="#f5ad89" stroke-linecap="butt" stroke-linejoin="round" stroke-width="4.54923"/>
</g>
</svg>
